<?xml version="1.0" standalone="no"?>
<!DOCTYPE svg PUBLIC "-//W3C//DTD SVG 20010904//EN"
 "http://www.w3.org/TR/2001/REC-SVG-20010904/DTD/svg10.dtd">
<svg version="1.0" xmlns="http://www.w3.org/2000/svg"
 width="707.1px" height="400px" viewBox="0 0 707.1 200" enable-background="new 0 0 707.1 200" xml:space="preserve">
<metadata>
Created by potrace 1.15, written by Peter Selinger 2001-2017
</metadata>
<g transform="translate(0.000000,307.000000) scale(0.100000,-0.100000)"
fill="#000000" stroke="none">
<path d="M1308 2820 c-231 -57 -435 -216 -544 -423 l-28 -55 -85 -4 c-153 -8
-316 -86 -412 -197 -47 -55 -104 -164 -124 -241 -18 -66 -19 -198 -4 -272 28
-133 133 -283 256 -364 31 -21 96 -52 143 -68 l85 -31 362 -3 c503 -5 473 -26
473 333 0 344 16 329 -347 333 -142 2 -253 7 -253 12 0 16 -62 80 -91 96 -33
17 -116 19 -156 3 -116 -44 -152 -222 -62 -309 34 -32 98 -60 138 -60 53 0
119 37 154 87 l31 43 217 0 c214 0 218 0 233 -22 23 -33 23 -333 0 -366 -15
-22 -16 -22 -332 -22 -351 0 -386 4 -494 62 -72 38 -167 137 -202 211 -14 30
-30 87 -37 127 -43 281 174 521 476 526 50 0 96 2 103 2 7 1 26 32 43 69 127
283 424 457 722 423 186 -21 336 -95 452 -222 110 -120 165 -237 186 -395 16
-120 19 -123 138 -121 124 1 190 -22 261 -93 62 -62 86 -109 100 -192 25 -157
-54 -299 -207 -370 -46 -21 -60 -22 -408 -25 -359 -3 -360 -3 -377 19 -17 19
-18 55 -18 418 l1 396 43 26 c87 53 111 170 53 258 -80 120 -262 109 -327 -19
-46 -89 -7 -210 83 -256 l27 -15 0 -430 c0 -482 -1 -473 71 -509 39 -20 53
-21 422 -18 370 3 384 4 446 26 132 48 223 131 283 258 28 59 33 82 36 166 4
80 0 108 -18 162 -63 191 -239 325 -425 326 l-50 0 -22 93 c-74 310 -308 547
-620 626 -107 28 -284 28 -395 1z"/>
<path d="M2190 522 c0 -232 2 -261 19 -292 23 -44 65 -69 130 -77 l51 -6 0 57
0 56 -33 0 c-18 0 -38 5 -45 12 -9 9 -12 80 -12 260 l0 248 -55 0 -55 0 0
-258z"/>
<path d="M230 587 c-67 -23 -99 -111 -65 -177 27 -52 49 -60 171 -60 95 0 115
-3 135 -19 21 -16 22 -22 11 -45 l-12 -26 -155 0 -155 0 0 -55 0 -55 148 0
c168 0 207 8 247 50 36 38 47 128 21 178 -29 56 -57 66 -190 72 -105 4 -121 7
-124 23 -3 15 9 17 137 17 l141 0 0 55 0 55 -137 -1 c-79 0 -153 -5 -173 -12z"/>
<path d="M670 375 l0 -226 53 3 52 3 0 220 0 220 -52 3 -53 3 0 -226z"/>
<path d="M903 585 c-23 -16 -23 -20 -23 -226 l0 -209 55 0 55 0 0 170 0 170
78 0 c47 0 83 -5 90 -12 8 -8 12 -61 12 -171 l0 -158 53 3 52 3 2 165 1 165
52 3 c80 5 80 4 80 -180 l0 -159 53 3 52 3 0 170 c0 149 -2 174 -19 201 -32
53 -69 68 -178 72 -86 4 -98 2 -98 -12 0 -14 -3 -15 -22 -4 -14 7 -75 14 -148
16 -104 3 -129 1 -147 -13z"/>
<path d="M1707 586 c-92 -34 -97 -52 -97 -341 l0 -236 53 3 52 3 3 224 c1 145
6 229 13 238 8 9 43 13 125 13 143 0 144 -1 144 -115 0 -113 -3 -115 -136
-115 l-104 0 0 -55 0 -55 108 0 c126 0 179 19 212 72 28 46 29 244 2 297 -33
66 -58 76 -205 79 -94 1 -143 -2 -170 -12z"/>
<path d="M2559 588 c-20 -5 -50 -23 -65 -39 l-29 -30 -3 -185 -3 -184 50 0 51
0 0 151 c0 84 5 159 10 170 10 17 22 19 146 19 l135 0 -3 53 -3 52 -125 2
c-69 0 -141 -3 -161 -9z"/>
</g>
</svg>
